{"title":"Geetanjali 1993 X264 AAC [RRG DBB][DADA] ClassiC","uid":8176190,"size":828892324,"categoryP":"video","categoryS":"movies","magnet":"?xt=urn:btih:51ca7e29f0bd02933c19a1358690f9ed87e0f3a6&amp;dn=+Geetanjali+1993+X264+AAC+%5BRRG+DBB%5D%5BDADA%5D+ClassiC&amp;tr=udp%3A%2F%2Ftracker.openbittorrent.com%3A80&amp;tr=udp%3A%2F%2Fopen.demonii.com%3A1337&amp;tr=udp%3A%2F%2Ftracker.coppersurfer.tk%3A6969&amp;tr=udp%3A%2F%2Fexodus.desync.com%3A6969","seeders":1,"leechers":0,"uploader":"brego45","files":1,"time":1361539111,"description":"Cover \n\n &lt;a href=&quot;\nhttp://yankoimages.net/k0ag6m3a55w6/Geetanjali.1993.X264.AAC.RRG.DADA..jpg.html&quot; rel=&quot;nofollow&quot; target=&quot;_NEW&quot;&gt;\nhttp://yankoimages.net/k0ag6m3a55w6/Geetanjali.1993.X264.AAC.RRG.DADA..jpg.html&lt;/a&gt;\n\n\nScreens\n &lt;a href=&quot;\nhttp://yankoimages.net/fx4j6uvihigc/Geetanjali.1993.X264.AAC.RRG.DADA.DBBIANS.Com_thumbs.jpg.html&quot; rel=&quot;nofollow&quot; target=&quot;_NEW&quot;&gt;\nhttp://yankoimages.net/fx4j6uvihigc/Geetanjali.1993.X264.AAC.RRG.DADA.DBBIANS.Com_thumbs.jpg.html&lt;/a&gt;\n\n\n\n &lt;a href=&quot;\nhttp://www.imdb.com/title/tt0268326&quot; rel=&quot;nofollow&quot; target=&quot;_NEW&quot;&gt;\nhttp://www.imdb.com/title/tt0268326&lt;/a&gt;\n\n\nGeneral\n\nFormat                           : MP4 Video\nFile size                        : 790 MiB\nDuration                         : 2h 31mn\nOverall bit rate                 : 729 Kbps\n\nVideo\nFormat                           : AVC\nFormat/Info                      : Advanced Video Codec\nFormat profile                   : &lt;a class=&quot;__cf_email__&quot; href=&quot;/cdn-cgi/l/email-protection&quot; data-cfemail=&quot;98d5f9f1f6d8d4abb6a8&quot;&gt;[email&amp;#160;protected]&lt;/a&gt;&lt;script cf-hash='f9e31' type=&quot;text/javascript&quot;&gt;\n/* &lt;![CDATA[ */!function(){try{var t=&quot;currentScript&quot;in document?document.currentScript:function(){for(var t=document.getElementsByTagName(&quot;script&quot;),e=t.length;e--;)if(t[e].getAttribute(&quot;cf-hash&quot;))return t[e]}();if(t&amp;&amp;t.previousSibling){var e,r,n,i,c=t.previousSibling,a=c.getAttribute(&quot;data-cfemail&quot;);if(a){for(e=&quot;&quot;,r=parseInt(a.substr(0,2),16),n=2;a.length-n;n+=2)i=parseInt(a.substr(n,2),16)^r,e+=String.fromCharCode(i);e=document.createTextNode(e),c.parentNode.replaceChild(e,c)}}}catch(u){}}();/* ]]&gt; */&lt;/script&gt;\nFormat settings, CABAC           : Yes\nFormat settings, ReFrames        : 3 frames\nDuration                         : 2h 31mn\nBit rate                         : 592 Kbps\nWidth                            : 640 pixels\nHeight                           : 480 pixels\nDisplay aspect ratio             : 4:3\nFrame rate mode                  : Constant\nFrame rate                       : 25.000 fps\nColor space                      : YUV\nChroma subsampling               : 4:2:0\nBit depth                        : 8 bits\nScan type                        : Progressive\nBits/(Pixel*Frame)               : 0.077\nStream size                      : 642 MiB (81%)\n\nAudio\nFormat                           : AAC\nFormat/Info                      : Advanced Audio Codec\nFormat version                   : Version 4\nFormat profile                   : LC\nFormat settings, SBR             : No\nDuration                         : 2h 31mn\nBit rate                         : 129 Kbps\nChannel(s)                       : 2 channels\nChannel positions                : Front: L R\nSampling rate                    : 44.1 KHz\nBit depth                        : 16 bits\nStream size                      : 140 MiB (18%)\n\n\n\nGeetanjali is the story of two twin sisters Geeta and Anjali (Rekha in double role). Geeta is a music teacher and Anjali is a world renowned famous dancer. Sagar (Jeetendra) is a college professor who has come to his sisters place to spend his holiday. There he meets Geeta, they fall in love and get married. In course of time they have a child. Geeta is of very suspicious nature. Whenever Sagar comes late she suspects that he must be having an affair with his female students. One of the students, Kaveri, flirts with Sagar so that he will pass her in the exams. She tries to take advantage of Sagar but when she is turned down, Kaveri reports to the principal that Sagar tried to rape her. Sagar is suspended till further enquiry and Geeta who had always suspected Sagar, leaves the house and goes to stay with her sister. Anjali knew Sagar well and did not believe Geeta. Anjali goes to Sagar's house as Geeta to find out the truth. Will Sagar's innocence be proved?\n\nGeetanjali Cast &amp; Crew:\n\n    Banner\n    Shakti Films\n\n    Release Date\n    1 Jan 1993\n\n    Genre\n    Drama\n\n    Producer\n    Shakti Samanta\n\n    Star Cast\n    Jeetendra\n    Rekha\n    Vijay Arora\n    Amita Nangia\n    Asrani\n    Ajit Vachchani\n    Dalip Tahil\n","torrent":{"xt":"urn:btih:51ca7e29f0bd02933c19a1358690f9ed87e0f3a6","amp;dn":"+Geetanjali+1993+X264+AAC+%5BRRG+DBB%5D%5BDADA%5D+ClassiC","amp;tr":["udp%3A%2F%2Ftracker.openbittorrent.com%3A80","udp%3A%2F%2Fopen.demonii.com%3A1337","udp%3A%2F%2Ftracker.coppersurfer.tk%3A6969","udp%3A%2F%2Fexodus.desync.com%3A6969"],"infoHash":"51ca7e29f0bd02933c19a1358690f9ed87e0f3a6","infoHashBuffer":{"type":"Buffer","data":[81,202,126,41,240,189,2,147,60,25,161,53,134,144,249,237,135,224,243,166]},"announce":[],"urlList":[]}}